<?xml version="1.0" encoding="iso-8859-1"?>
<!-- Uploaded to: SVG Repo, www.svgrepo.com, Generator: SVG Repo Mixer Tools -->
<svg height="800px" width="800px" version="1.1" id="Layer_1" xmlns="http://www.w3.org/2000/svg" xmlns:xlink="http://www.w3.org/1999/xlink" 
	 viewBox="0 0 512.853 512.853" xml:space="preserve">
<g transform="translate(1)">
	<path style="fill:#FFDD09;" d="M120.617,430.08l343.04-343.04l7.68-7.68c17.92-17.92,25.6-40.107,16.213-48.64l-5.973-5.973
		c-8.533-8.533-30.72-1.707-47.787,16.213l-8.533,8.533L82.217,391.68L120.617,430.08z"/>
	<polygon style="fill:#FCC309;" points="83.924,399.36 112.937,428.373 7.977,504.32 	"/>
	<polygon style="fill:#FD9808;" points="112.937,428.373 7.977,504.32 134.271,449.707 	"/>
	<polygon style="fill:#FFFFFF;" points="62.591,378.027 7.977,504.32 83.924,399.36 	"/>
	<polygon style="fill:#FCC309;" points="119.764,435.2 77.097,392.533 100.991,368.64 143.657,411.307 	"/>
	<polygon style="fill:#FFFFFF;" points="89.044,350.72 65.151,374.613 83.924,394.24 108.671,369.493 	"/>
	<polygon style="fill:#FD9808;" points="142.804,403.627 118.057,428.373 137.684,447.147 161.577,423.253 	"/>
	<g>
		<polygon style="fill:#FCC309;" points="147.071,365.227 110.377,329.387 351.871,87.893 387.711,124.587 		"/>
		<polygon style="fill:#FCC309;" points="448.297,136.533 375.764,64 412.457,27.307 484.991,99.84 		"/>
	</g>
	<path style="fill:#FD9808;" d="M490.111,29.013l-2.56-2.56c8.533,9.387,2.56,29.867-14.507,46.933l-7.68,7.68L141.951,404.48
		l17.067,17.067L482.431,98.133l7.68-7.68C507.177,73.387,507.177,46.08,490.111,29.013"/>
	<path style="fill:#FFFFFF;" d="M103.551,372.053L426.964,48.64l7.68-7.68c17.067-17.067,37.547-23.04,46.08-14.507l-2.56-2.56
		c-17.067-17.067-44.373-17.067-60.587,0l-7.68,7.68L86.484,354.987"/>
	<path d="M147.071,373.76c-2.56,0-4.267-0.853-5.973-2.56l-35.84-35.84c-2.56-1.707-3.413-3.413-3.413-5.973s0.853-4.267,2.56-5.973
		L345.897,81.92c1.707-1.707,3.413-2.56,5.973-2.56l0,0c2.56,0,4.267,0.853,5.973,2.56l35.84,35.84
		c3.413,3.413,3.413,8.533,0,11.947L153.044,371.2C151.337,372.907,148.777,373.76,147.071,373.76z M122.324,329.387l23.893,23.893
		l229.547-229.547L351.871,99.84L122.324,329.387z"/>
	<path d="M159.017,434.347c-2.56,0-4.267-0.853-5.973-2.56l-72.533-72.533c-3.413-3.413-3.413-8.533,0-11.947L412.457,15.36
		c20.48-20.48,52.907-20.48,72.533,0l11.093,11.093c10.24,10.24,15.36,23.893,15.36,37.547s-5.12,27.307-15.36,36.693
		L164.991,431.787C163.284,433.493,160.724,434.347,159.017,434.347z M98.431,353.28l60.587,60.587l325.12-325.12
		c6.827-6.827,10.24-15.36,10.24-24.747s-3.413-17.92-10.24-24.747L473.044,28.16c-13.653-13.653-34.987-13.653-48.64,0
		L98.431,353.28z"/>
	<path d="M7.977,512.853c-2.56,0-4.267-0.853-5.973-2.56c-2.56-2.56-3.413-5.973-1.707-9.387l54.613-126.293
		c0.853-2.56,3.413-4.267,5.973-5.12c2.56-0.853,5.973,0,7.68,2.56l72.533,72.533c1.707,1.707,2.56,5.12,2.56,7.68
		c-0.853,2.56-2.56,5.12-5.12,5.973L11.391,512C10.537,512.853,8.831,512.853,7.977,512.853z M65.151,392.533l-40.96,95.573
		l95.573-40.96L65.151,392.533z"/>
	<path d="M134.271,458.24c-2.56,0-4.267-0.853-5.973-2.56l-72.533-72.533c-3.413-3.413-3.413-8.533,0-11.947l23.893-23.893
		c3.413-3.413,8.533-3.413,11.947,0l72.533,72.533c3.413,3.413,3.413,8.533,0,11.947l-23.893,23.893
		C139.391,457.387,136.831,458.24,134.271,458.24z M74.537,378.027l60.587,60.587l11.947-11.947L86.484,366.08L74.537,378.027z"/>
	<path d="M448.297,145.067c-2.56,0-4.267-0.853-5.973-2.56l-72.533-72.533c-3.413-3.413-3.413-8.533,0-11.947l35.84-35.84
		c3.413-3.413,8.533-3.413,11.947,0l72.533,72.533c3.413,3.413,3.413,8.533,0,11.947l-35.84,35.84
		C452.564,144.213,450.857,145.067,448.297,145.067z M387.711,64l60.587,60.587l23.893-23.893l-60.587-60.587L387.711,64z"/>
</g>
</svg>